<svg xmlns="http://www.w3.org/2000/svg" width="183.205" height="61.242" viewBox="0 0 183.205 61.242"><path d="M168.614,0H12.922c-.475,0-.934.015-1.409.015A20.507,20.507,0,0,0,8.451.291a9.857,9.857,0,0,0-2.909.965,9.3,9.3,0,0,0-2.48,1.807,9.3,9.3,0,0,0-1.807,2.48A10.289,10.289,0,0,0,.306,8.451a20.507,20.507,0,0,0-.276,3.062C.015,11.988,0,12.463,0,12.922V48.3c0,.475.015.934.031,1.409a20.507,20.507,0,0,0,.276,3.062,10.133,10.133,0,0,0,.949,2.909,9.222,9.222,0,0,0,1.807,2.465,9.643,9.643,0,0,0,2.48,1.807,10.321,10.321,0,0,0,2.909.965,20.508,20.508,0,0,0,3.062.276c.475.031.934.046,1.409.046H170.267c.459,0,.949,0,1.409-.015a20.506,20.506,0,0,0,3.062-.276,10.419,10.419,0,0,0,2.924-.965,9.547,9.547,0,0,0,2.48-1.807,9.834,9.834,0,0,0,1.807-2.465,10.289,10.289,0,0,0,.949-2.909,22.777,22.777,0,0,0,.291-3.062V48.335c.015-.551.015-1.1.015-1.669V14.606c0-.566,0-1.118-.015-1.669V11.529a18.684,18.684,0,0,0-.291-3.062,10.289,10.289,0,0,0-.949-2.909,9.992,9.992,0,0,0-4.287-4.287,10.759,10.759,0,0,0-2.924-.965,20.507,20.507,0,0,0-3.062-.276c-.459,0-.949-.015-1.409-.015C169.732,0,169.165,0,168.614,0Z" fill="#a6a6a6"/><path d="M12.46,59.422c-.459,0-.919,0-1.378-.015a19.885,19.885,0,0,1-2.863-.245,8.863,8.863,0,0,1-2.542-.842,8.548,8.548,0,0,1-3.705-3.705,8.681,8.681,0,0,1-.827-2.542,20.112,20.112,0,0,1-.26-2.878C.87,48.873.87,47.8.87,47.8V12.449s.015-1.056.015-1.363a22.354,22.354,0,0,1,.26-2.863,8.71,8.71,0,0,1,.842-2.542A7.945,7.945,0,0,1,3.549,3.539,8.209,8.209,0,0,1,5.677,1.977,8.736,8.736,0,0,1,8.2,1.15,18.109,18.109,0,0,1,11.082.905L12.46.89H169.805L171.2.905a19.861,19.861,0,0,1,2.848.245,8.958,8.958,0,0,1,2.557.842A8.575,8.575,0,0,1,180.308,5.7a9.226,9.226,0,0,1,.827,2.526,20.127,20.127,0,0,1,.26,2.894V12.48c.015.582.015,1.118.015,1.669V46.193c0,.551,0,1.1-.015,1.654v1.424a19.484,19.484,0,0,1-.26,2.832,8.927,8.927,0,0,1-.827,2.557,8.475,8.475,0,0,1-1.562,2.128A8.285,8.285,0,0,1,176.6,58.35a8.959,8.959,0,0,1-2.557.842,17.919,17.919,0,0,1-2.863.245c-.444.015-.919.015-1.378.015h-1.654Z" transform="translate(0.462 0.473)"/><g transform="translate(15.285 13.351)"><path d="M32.622,23.661a7.549,7.549,0,0,1,3.613-6.354A7.772,7.772,0,0,0,30.127,14c-2.572-.276-5.068,1.531-6.369,1.531-1.332,0-3.353-1.516-5.527-1.47a8.136,8.136,0,0,0-6.844,4.18c-2.955,5.129-.75,12.662,2.082,16.811,1.424,2.036,3.077,4.3,5.251,4.21,2.128-.092,2.924-1.347,5.481-1.347,2.542,0,3.276,1.347,5.5,1.3,2.281-.031,3.72-2.036,5.083-4.088A16.607,16.607,0,0,0,37.108,30.4,7.307,7.307,0,0,1,32.622,23.661Z" transform="translate(-9.984 -5.931)" fill="#fff"/><path d="M23.766,14.063a7.441,7.441,0,0,0,1.7-5.343,7.567,7.567,0,0,0-4.915,2.542,7.088,7.088,0,0,0-1.745,5.144A6.293,6.293,0,0,0,23.766,14.063Z" transform="translate(-5.307 -8.72)" fill="#fff"/><g transform="translate(37.428 14.009)"><path d="M46.479,31.951H39.237L37.492,37.1H34.43L41.289,18.08h3.185L51.333,37.1H48.209Zm-6.492-2.373h5.741L42.9,21.234H42.82Z" transform="translate(-34.43 -17.758)" fill="#fff"/><path d="M59.69,28.424c0,4.3-2.312,7.073-5.787,7.073a4.713,4.713,0,0,1-4.363-2.419h-.061v6.859H46.63V21.489h2.756V23.8h.046a4.915,4.915,0,0,1,4.409-2.45C57.378,21.351,59.69,24.122,59.69,28.424Zm-2.924,0c0-2.8-1.454-4.654-3.659-4.654-2.174,0-3.644,1.883-3.644,4.654,0,2.786,1.47,4.67,3.644,4.67C55.311,33.094,56.766,31.257,56.766,28.424Z" transform="translate(-27.951 -16.023)" fill="#fff"/><path d="M69.645,28.424c0,4.3-2.312,7.073-5.787,7.073a4.713,4.713,0,0,1-4.363-2.419h-.061v6.859H56.6V21.489h2.756V23.8H59.4a4.915,4.915,0,0,1,4.409-2.45C67.333,21.351,69.645,24.122,69.645,28.424Zm-2.924,0c0-2.8-1.454-4.654-3.659-4.654-2.174,0-3.644,1.883-3.644,4.654,0,2.786,1.47,4.67,3.644,4.67,2.22,0,3.659-1.837,3.659-4.67Z" transform="translate(-22.657 -16.023)" fill="#fff"/><path d="M72.719,31.91c.214,1.883,2.036,3.123,4.547,3.123,2.4,0,4.119-1.24,4.119-2.94,0-1.47-1.041-2.358-3.506-2.97l-2.465-.6c-3.491-.842-5.114-2.48-5.114-5.129,0-3.276,2.863-5.527,6.92-5.527,4.011,0,6.767,2.251,6.859,5.527H81.2c-.168-1.9-1.745-3.047-4.027-3.047s-3.858,1.164-3.858,2.848c0,1.347,1,2.128,3.445,2.741l2.1.521c3.9.919,5.527,2.5,5.527,5.267,0,3.552-2.832,5.787-7.334,5.787-4.21,0-7.058-2.174-7.242-5.619Z" transform="translate(-15.642 -17.87)" fill="#fff"/><path d="M85.044,19.3v3.276h2.633v2.251H85.044v7.64c0,1.194.521,1.745,1.684,1.745.306,0,.628-.031.934-.061v2.235a9.145,9.145,0,0,1-1.577.138c-2.8,0-3.9-1.056-3.9-3.736V24.842H80.16V22.592h2.021V19.3Z" transform="translate(-10.145 -17.111)" fill="#fff"/><path d="M86.07,28.434c0-4.363,2.572-7.1,6.568-7.1,4.011,0,6.568,2.741,6.568,7.1,0,4.379-2.542,7.1-6.568,7.1S86.07,32.813,86.07,28.434Zm10.243,0c0-2.986-1.378-4.762-3.675-4.762s-3.675,1.776-3.675,4.762c0,3,1.363,4.762,3.675,4.762s3.675-1.761,3.675-4.762Z" transform="translate(-7.007 -16.033)" fill="#fff"/><path d="M96.19,21.494H98.9v2.358h.061a3.339,3.339,0,0,1,3.338-2.511,4.27,4.27,0,0,1,.98.107v2.664a3.978,3.978,0,0,0-1.271-.168A2.874,2.874,0,0,0,99.022,26.7a4.3,4.3,0,0,0,.015.444v8.222H96.19Z" transform="translate(-1.633 -16.028)" fill="#fff"/><path d="M113.719,31.3c-.383,2.511-2.832,4.241-5.971,4.241-4.027,0-6.538-2.695-6.538-7.043s2.511-7.165,6.415-7.165c3.828,0,6.247,2.633,6.247,6.844v.98h-9.783v.168a3.618,3.618,0,0,0,3.276,3.919c.153.015.306.015.444.015a3.143,3.143,0,0,0,3.2-1.944ZM104.1,27.148h6.936a3.315,3.315,0,0,0-3.139-3.506h-.26a3.509,3.509,0,0,0-3.537,3.491Z" transform="translate(1.033 -16.033)" fill="#fff"/></g></g><g transform="translate(54.612 12.922)"><path d="M38.977,8.733a4.043,4.043,0,0,1,4.318,3.736,4.612,4.612,0,0,1-.015.8c0,2.924-1.577,4.593-4.3,4.593H35.67V8.733Zm-1.883,7.839h1.715a2.874,2.874,0,0,0,3.031-2.695,2.607,2.607,0,0,0-.031-.6,2.882,2.882,0,0,0-2.465-3.246,2.216,2.216,0,0,0-.551-.015h-1.7Z" transform="translate(-35.67 -8.289)" fill="#fff"/><path d="M41.685,13.682a3.269,3.269,0,0,1,6.507-.628,4.3,4.3,0,0,1,0,.628,3.269,3.269,0,0,1-6.507.628A4.293,4.293,0,0,1,41.685,13.682Zm5.1,0c0-1.5-.674-2.373-1.853-2.373s-1.853.873-1.853,2.373.658,2.373,1.853,2.373,1.853-.873,1.853-2.373Z" transform="translate(-32.483 -7.558)" fill="#fff"/><path d="M54.225,17.09H52.817l-1.424-5.083h-.107L49.862,17.09H48.468l-1.9-6.89h1.378l1.24,5.267H49.3L50.719,10.2h1.3l1.424,5.267h.107L54.776,10.2h1.363Z" transform="translate(-29.882 -7.505)" fill="#fff"/><path d="M53.85,10.235h1.317v1.1h.107a2.042,2.042,0,0,1,2.052-1.225,2.235,2.235,0,0,1,2.4,2.067,2.581,2.581,0,0,1-.015.49v4.455H58.351V13.006c0-1.1-.475-1.654-1.485-1.654a1.576,1.576,0,0,0-1.654,1.5v4.272H53.85Z" transform="translate(-26.016 -7.556)" fill="#fff"/><path d="M59.09,8.44h1.363v9.584H59.09Z" transform="translate(-23.233 -8.44)" fill="#fff"/><path d="M61.228,13.682a3.269,3.269,0,0,1,6.507-.628,4.3,4.3,0,0,1,0,.628,3.269,3.269,0,0,1-6.507.628A2.155,2.155,0,0,1,61.228,13.682Zm5.1,0c0-1.5-.674-2.373-1.853-2.373s-1.853.873-1.853,2.373.658,2.373,1.853,2.373C65.653,16.055,66.326,15.183,66.326,13.682Z" transform="translate(-22.11 -7.558)" fill="#fff"/><path d="M66.4,15.178c0-1.24.919-1.96,2.557-2.052l1.868-.107v-.6c0-.735-.475-1.133-1.409-1.133-.766,0-1.286.276-1.439.766H66.66c.138-1.179,1.255-1.944,2.817-1.944,1.73,0,2.71.857,2.71,2.312v4.716H70.871v-.965h-.107A2.349,2.349,0,0,1,68.7,17.26a2.071,2.071,0,0,1-2.281-1.853A1.238,1.238,0,0,1,66.4,15.178Zm4.44-.582v-.582l-1.684.107c-.949.061-1.378.383-1.378,1,0,.628.536.98,1.271.98a1.628,1.628,0,0,0,1.776-1.454A.056.056,0,0,1,70.84,14.6Z" transform="translate(-19.351 -7.553)" fill="#fff"/><path d="M71.35,14.564c0-2.174,1.118-3.552,2.863-3.552a2.266,2.266,0,0,1,2.113,1.21h.107V8.44H77.8v9.584H76.479V16.937h-.107a2.41,2.41,0,0,1-2.159,1.21C72.452,18.131,71.35,16.754,71.35,14.564Zm1.409,0c0,1.47.689,2.342,1.837,2.342s1.853-.888,1.853-2.342c0-1.439-.72-2.342-1.853-2.342-1.148.015-1.837.9-1.837,2.342Z" transform="translate(-16.722 -8.44)" fill="#fff"/><path d="M79.235,13.683a3.269,3.269,0,0,1,6.507-.628,4.3,4.3,0,0,1,0,.628,3.269,3.269,0,0,1-6.507.628A4.291,4.291,0,0,1,79.235,13.683Zm5.1,0c0-1.5-.674-2.373-1.853-2.373s-1.853.873-1.853,2.373.658,2.373,1.853,2.373C83.66,16.056,84.333,15.184,84.333,13.683Z" transform="translate(-12.543 -7.559)" fill="#fff"/><path d="M84.67,10.235h1.317v1.1h.107a2.042,2.042,0,0,1,2.052-1.225,2.235,2.235,0,0,1,2.4,2.067,2.58,2.58,0,0,1-.015.49v4.455H89.171V13.006c0-1.1-.475-1.654-1.485-1.654a1.576,1.576,0,0,0-1.654,1.5v4.272H84.67v-6.89Z" transform="translate(-9.649 -7.556)" fill="#fff"/><path d="M94.364,9.07v1.745h1.5v1.148h-1.5v3.552c0,.72.291,1.041.98,1.041.168,0,.352-.015.521-.031v1.133a5.981,5.981,0,0,1-.735.077c-1.516,0-2.113-.536-2.113-1.868V11.979H91.93V10.831h1.087V9.07Z" transform="translate(-5.793 -8.105)" fill="#fff"/><path d="M95.7,8.44h1.347v3.8h.107a2.138,2.138,0,0,1,2.1-1.24,2.265,2.265,0,0,1,2.388,2.143,2.01,2.01,0,0,1-.015.429v4.455h-1.363V13.906c0-1.1-.505-1.654-1.47-1.654a1.59,1.59,0,0,0-1.73,1.47v4.3H95.7Z" transform="translate(-3.791 -8.44)" fill="#fff"/><path d="M106.911,15.27a2.786,2.786,0,0,1-2.986,1.99,3.131,3.131,0,0,1-3.215-3.047,2.8,2.8,0,0,1,.031-.505,3.176,3.176,0,0,1,2.725-3.567c.153-.015.306-.031.444-.031,1.914,0,3.077,1.317,3.077,3.475v.475h-4.869v.077a1.822,1.822,0,0,0,1.669,1.975h.168a1.643,1.643,0,0,0,1.638-.842Zm-4.777-2.22h3.475a1.652,1.652,0,0,0-1.531-1.776h-.168a1.764,1.764,0,0,0-1.791,1.745c.015,0,.015.015.015.031Z" transform="translate(-1.131 -7.553)" fill="#fff"/></g></svg>