<svg xmlns="http://www.w3.org/2000/svg" xmlns:xlink="http://www.w3.org/1999/xlink" width="57.5" height="54.496" viewBox="0 0 57.5 54.496"><defs><linearGradient id="a" x1="0.142" y1="0.843" x2="0.813" y2="0.114" gradientUnits="objectBoundingBox"><stop offset="0" stop-color="#ea5607"/><stop offset="1" stop-color="#ff7600"/></linearGradient></defs><g transform="translate(-16 -32)"><g transform="translate(-430.5 -3988.504)"><circle cx="26.5" cy="26.5" r="26.5" transform="translate(451 4022)" fill="url(#a)"/><path d="M17.358,12.925a5.677,5.677,0,0,0,2.476-4.89c0-3.6-2.157-6-5.884-6.666V0H10.193V1.182H6.834V0H3.079V1.182H0l4.625,6.23H1.808V20.263H4.625L0,26.495H3.079v1.181H6.834V26.495h3.359v1.181h3.756V26.482c4.489-.191,7.976-2.817,7.976-7.357,0-3.513-1.953-5.3-4.567-6.2M7.107,5.969h3.905c2.2,0,3.486,1.033,3.486,2.755,0,1.688-1.324,2.79-3.347,2.79H7.107Zm5.648,15.738H7.107V15.68h5.509c2.475,0,3.9,1.068,3.9,3.03S15.057,21.707,12.756,21.707Z" transform="translate(466.537 4034.662)" fill="#fff"/></g><path d="M18.746-9.815a2.433,2.433,0,0,1,.041.531,12.024,12.024,0,0,1-.817,4.309,13.585,13.585,0,0,1-2.308,3.921A11.006,11.006,0,0,1,11.8,1.825a12.235,12.235,0,0,1-5.228,1.1A11.9,11.9,0,0,1,0,1.008q.449.041,1.021.041A8.5,8.5,0,0,0,6.371-.789,3.989,3.989,0,0,1,3.86-1.626a4.265,4.265,0,0,1-1.491-2.1q.408.041.776.041a5.444,5.444,0,0,0,1.144-.123,4.166,4.166,0,0,1-1.756-.817A4.475,4.475,0,0,1,1.307-6.119a4.109,4.109,0,0,1-.449-1.9V-8.1a4.037,4.037,0,0,0,1.92.572,4.121,4.121,0,0,1-1.92-3.594,4.14,4.14,0,0,1,.613-2.165,11.825,11.825,0,0,0,3.9,3.186,11.871,11.871,0,0,0,4.921,1.307,5.953,5.953,0,0,1-.082-.98A4.159,4.159,0,0,1,11.456-12.8a4.059,4.059,0,0,1,3-1.266A4.139,4.139,0,0,1,17.6-12.715a8.725,8.725,0,0,0,2.736-1.021,4.256,4.256,0,0,1-1.879,2.369,9.212,9.212,0,0,0,2.451-.694A9.427,9.427,0,0,1,18.746-9.815Z" transform="translate(16 46.063)" fill="#4aa1ec"/></g></svg>