<svg xmlns="http://www.w3.org/2000/svg" xmlns:xlink="http://www.w3.org/1999/xlink" width="229.951" height="229.951" viewBox="0 0 229.951 229.951"><defs><filter id="a" x="0" y="0" width="229.951" height="229.951" filterUnits="userSpaceOnUse"><feOffset dy="10" input="SourceAlpha"/><feGaussianBlur stdDeviation="10" result="b"/><feFlood flood-color="#606060" flood-opacity="0.161"/><feComposite operator="in" in2="b"/><feComposite in="SourceGraphic"/></filter></defs><g transform="translate(63.302 41.151)"><g transform="matrix(1, 0, 0, 1, -63.3, -41.15)" filter="url(#a)"><circle cx="84.975" cy="84.975" r="84.975" transform="translate(30 20)" fill="#fff"/></g><path d="M96.286,54.219C97.97,42.963,89.4,36.912,77.681,32.875l3.8-15.248L72.2,15.314,68.5,30.16c-2.44-.608-4.946-1.182-7.436-1.75l3.727-14.944-9.276-2.313L51.711,26.4c-2.02-.46-4-.915-5.927-1.393l.011-.048L33,21.759l-2.469,9.913s6.886,1.578,6.741,1.676c3.759.938,4.438,3.426,4.325,5.4l-4.33,17.371a7.688,7.688,0,0,1,.965.309c-.309-.077-.64-.161-.981-.243l-6.07,24.334a3.378,3.378,0,0,1-4.253,2.2c.093.135-6.746-1.684-6.746-1.684L15.569,91.662l12.078,3.011c2.247.563,4.449,1.153,6.617,1.708L30.423,111.8l9.271,2.313,3.8-15.258c2.532.687,4.991,1.322,7.4,1.919L47.1,115.964l9.281,2.313,3.841-15.393c15.827,3,27.728,1.787,32.737-12.528,4.037-11.526-.2-18.174-8.528-22.51,6.064-1.4,10.632-5.388,11.851-13.627ZM75.08,83.956c-2.868,11.526-22.274,5.295-28.566,3.733l5.1-20.432C57.9,68.827,78.078,71.936,75.08,83.956Zm2.871-29.9C75.334,64.536,59.182,59.21,53.942,57.9l4.621-18.531C63.8,40.679,80.676,43.116,77.951,54.052Z" transform="translate(-4.36 -0.89)" fill="#f7931a"/></g></svg>