<svg xmlns="http://www.w3.org/2000/svg" xmlns:xlink="http://www.w3.org/1999/xlink" width="64" height="64" viewBox="0 0 64 64"><defs><linearGradient id="a" x1="0.118" y1="0.841" x2="0.821" y2="0.108" gradientUnits="objectBoundingBox"><stop offset="0" stop-color="#ea5607"/><stop offset="1" stop-color="#ff7600"/></linearGradient></defs><g transform="translate(16 14.42)"><circle cx="32" cy="32" r="32" transform="translate(-16 -14.42)" fill="url(#a)"/><path d="M52.165,6.715,41.83.755a5.681,5.681,0,0,0-5.659,0L25.835,6.715A5.681,5.681,0,0,0,23,11.623V23.535a5.681,5.681,0,0,0,2.835,4.908L36.17,34.4a5.681,5.681,0,0,0,5.659,0l10.335-5.961A5.681,5.681,0,0,0,55,23.535V11.623A5.681,5.681,0,0,0,52.165,6.715Zm.088,16.82a2.926,2.926,0,0,1-1.46,2.528L40.458,32.024a2.926,2.926,0,0,1-2.915,0L27.207,26.063a2.926,2.926,0,0,1-1.46-2.528V11.623A2.926,2.926,0,0,1,27.207,9.1L37.542,3.135a2.926,2.926,0,0,1,2.915,0L50.793,9.1a2.926,2.926,0,0,1,1.46,2.528Z" transform="translate(-23 0)" fill="#fff"/><path d="M137.071,177.721l-5.043-4.268a1.358,1.358,0,0,0-1.754,2.073l3.818,3.231-3.818,3.231a1.358,1.358,0,1,0,1.754,2.073l5.043-4.268A1.358,1.358,0,0,0,137.071,177.721Z" transform="translate(-122.433 -161.178)" fill="#fff"/><path d="M259.678,298.859h-6.109a1.358,1.358,0,0,0,0,2.716h6.109a1.358,1.358,0,0,0,0-2.716Z" transform="translate(-236.402 -278.317)" fill="#fff"/></g></svg>