<svg xmlns="http://www.w3.org/2000/svg" width="328" height="328" viewBox="0 0 328 328"><g transform="translate(-237 -1868)"><circle cx="164" cy="164" r="164" transform="translate(237 1868)" fill="#ea5607"/><path d="M114.716,85.423c8.062-5.236,16.361-15.93,16.361-32.319,0-23.8-14.254-39.664-38.889-44.057V0H67.364V7.811h-22.2V0H20.346V7.811H0L30.569,48.988H11.95v84.931H30.569L0,175.1H20.347v7.8h24.82v-7.8h22.2v7.8H92.188v-7.889c29.664-1.265,52.713-18.618,52.713-48.624,0-23.216-12.9-35.054-30.186-40.969M46.971,39.447H72.78c14.517,0,23.041,6.826,23.041,18.206,0,11.153-8.752,18.437-22.121,18.437H46.971ZM84.3,143.46H46.971V103.63H83.38c16.357,0,25.8,7.058,25.8,20.026S99.509,143.46,84.3,143.46Z" transform="translate(328.55 1939.209)" fill="#fff"/></g></svg>