<svg xmlns="http://www.w3.org/2000/svg" xmlns:xlink="http://www.w3.org/1999/xlink" width="201" height="201" viewBox="0 0 201 201"><defs><filter id="a" x="0" y="0" width="201" height="201" filterUnits="userSpaceOnUse"><feOffset dy="10" input="SourceAlpha"/><feGaussianBlur stdDeviation="10" result="b"/><feFlood flood-color="#606060" flood-opacity="0.161"/><feComposite operator="in" in2="b"/><feComposite in="SourceGraphic"/></filter></defs><g transform="translate(64.793 24.712)"><g transform="matrix(1, 0, 0, 1, -64.79, -24.71)" filter="url(#a)"><circle cx="70.5" cy="70.5" r="70.5" transform="translate(30 20)" fill="#fff"/></g><g transform="translate(2.176 10.976)"><path d="M125.9,0l-.734,2.494V74.877l.734.733,33.6-19.86Z" transform="translate(-92.301)" fill="#343434"/><path d="M33.6,0,0,55.749,33.6,75.61V0Z" transform="translate(0)" fill="#8c8c8c"/><path d="M126.8,256.437l-.414.5v25.784l.414,1.208,33.619-47.347Z" transform="translate(-93.201 -174.466)" fill="#3c3c3b"/><path d="M33.6,283.932v-27.5L0,236.585Z" transform="translate(0 -174.465)" fill="#8c8c8c"/><path d="M127.961,189.29l33.6-19.86-33.6-15.272Z" transform="translate(-94.362 -113.681)" fill="#141414"/><path d="M0,169.43l33.6,19.86V154.159Z" transform="translate(-0.001 -113.681)" fill="#393939"/></g></g></svg>