<svg xmlns="http://www.w3.org/2000/svg" width="32" height="31.204" viewBox="0 0 32 31.204"><path d="M10.71,9.628q0,.258-.323.258Q10,9.951,10,9.628q0-.194.323-.194Q10.71,9.37,10.71,9.628Zm-1.742.065q-.387-.065-.29-.323T9.1,9.241q.323.065.258.323T8.968,9.693Zm2.581-.452q.323,0,.355.194t-.29.323q-.323.065-.355-.194T11.548,9.241Zm4.258-24.71A16.554,16.554,0,0,1,23.935-13.4a15.441,15.441,0,0,1,5.9,5.677A15.288,15.288,0,0,1,32,.273a16.146,16.146,0,0,1-3,9.581,15.355,15.355,0,0,1-7.839,5.839.843.843,0,0,1-.806-.129.827.827,0,0,1-.29-.645V9.5a3.636,3.636,0,0,0-1.1-2.968q1.419-.194,2.194-.323A10.214,10.214,0,0,0,23.1,5.628a4.4,4.4,0,0,0,1.774-1.161,6.177,6.177,0,0,0,1.065-2,9.411,9.411,0,0,0,.452-3.1,4.476,4.476,0,0,0-.387-2,7.793,7.793,0,0,0-1.29-1.742,5.979,5.979,0,0,0-.129-4.387,2.815,2.815,0,0,0-1.742.226A11.588,11.588,0,0,0,20.9-7.6l-.774.581a14.62,14.62,0,0,0-4.1-.581A13.957,13.957,0,0,0,12-7.017a9.059,9.059,0,0,0-.9-.613,12.954,12.954,0,0,0-1.774-.839,2.8,2.8,0,0,0-1.774-.29,5.8,5.8,0,0,0-.194,4.387A5.358,5.358,0,0,0,5.871-.63a9.411,9.411,0,0,0,.452,3.1,6.628,6.628,0,0,0,1.032,2A4.158,4.158,0,0,0,9.032,5.628a10.6,10.6,0,0,0,1.9.613q.806.161,2.161.29a3.517,3.517,0,0,0-1.032,2.194,7.161,7.161,0,0,1-1.323.387,3.277,3.277,0,0,1-1.71-.258A3.276,3.276,0,0,1,7.355,7.37a3.19,3.19,0,0,0-1-1.129A2.659,2.659,0,0,0,5.29,5.757L4.9,5.693q-1.419,0-.129.968a3.218,3.218,0,0,1,.9.839,4.893,4.893,0,0,1,.645,1.032l.258.516a2.725,2.725,0,0,0,.9,1.29,3.045,3.045,0,0,0,1.419.645,9.031,9.031,0,0,0,1.484.129,8.5,8.5,0,0,0,1.161-.065L12,10.983q0,.774.032,2.323t.032,1.613a.827.827,0,0,1-.29.645.843.843,0,0,1-.806.129A15.5,15.5,0,0,1,3.032,9.854,16.027,16.027,0,0,1,0,.273,15.184,15.184,0,0,1,4.548-10.953,15.347,15.347,0,0,1,15.806-15.469ZM6.258,6.789q.129-.129.323.065t.065.323q-.129.129-.323-.065T6.258,6.789Zm-.71-.516a.292.292,0,0,1,.323-.065q.194.129.129.258-.065.194-.258.065Q5.484,6.4,5.548,6.273ZM7.677,8.531q.129-.194.387.065t.129.452Q8,9.241,7.742,8.983T7.677,8.531Zm-.774-.9q.194-.194.387.129.194.258,0,.387t-.355-.161Q6.774,7.693,6.9,7.628Z" transform="translate(0 15.469)" fill="#1b1f23"/></svg>