<svg xmlns="http://www.w3.org/2000/svg" xmlns:xlink="http://www.w3.org/1999/xlink" width="229.951" height="229.951" viewBox="0 0 229.951 229.951"><defs><filter id="a" x="0" y="0" width="229.951" height="229.951" filterUnits="userSpaceOnUse"><feOffset dy="10" input="SourceAlpha"/><feGaussianBlur stdDeviation="10" result="b"/><feFlood flood-color="#606060" flood-opacity="0.161"/><feComposite operator="in" in2="b"/><feComposite in="SourceGraphic"/></filter></defs><g transform="translate(63.302 41.151)"><g transform="matrix(1, 0, 0, 1, -63.3, -41.15)" filter="url(#a)"><circle cx="84.975" cy="84.975" r="84.975" transform="translate(30 20)" fill="#fff"/></g><path d="M55.975,41.682c3.934-2.555,7.983-7.773,7.983-15.77C63.959,14.3,57,6.558,44.983,4.415V0H32.87V3.812H22.038V0H9.928V3.812H0L14.916,23.9H5.831V65.346h9.085L0,85.44H9.928v3.808H22.039V85.44H32.87v3.808H44.983V85.4C59.458,84.782,70.7,76.314,70.7,61.673c0-11.328-6.3-17.1-14.729-19.991M22.919,19.248H35.513c7.084,0,11.243,3.331,11.243,8.884,0,5.442-4.271,9-10.794,9H22.919ZM41.135,70H22.919V50.566H40.685c7.981,0,12.591,3.444,12.591,9.772S48.555,70,41.135,70Z" transform="translate(16.32 19.2)" fill="#ea5607"/></g></svg>