<svg xmlns="http://www.w3.org/2000/svg" width="180.541" height="58.562" viewBox="0 0 180.541 58.562"><path d="M12.46,59.422c-.459,0-.919,0-1.378-.015a19.885,19.885,0,0,1-2.863-.245,8.863,8.863,0,0,1-2.542-.842,8.548,8.548,0,0,1-3.705-3.705,8.681,8.681,0,0,1-.827-2.542,20.112,20.112,0,0,1-.26-2.878C.87,48.873.87,47.8.87,47.8V12.449s.015-1.056.015-1.363a22.354,22.354,0,0,1,.26-2.863,8.71,8.71,0,0,1,.842-2.542A7.945,7.945,0,0,1,3.549,3.539,8.209,8.209,0,0,1,5.677,1.977,8.736,8.736,0,0,1,8.2,1.15,18.109,18.109,0,0,1,11.082.905L12.46.89H169.805L171.2.905a19.861,19.861,0,0,1,2.848.245,8.958,8.958,0,0,1,2.557.842A8.575,8.575,0,0,1,180.308,5.7a9.226,9.226,0,0,1,.827,2.526,20.127,20.127,0,0,1,.26,2.894V12.48c.015.582.015,1.118.015,1.669V46.193c0,.551,0,1.1-.015,1.654v1.424a19.484,19.484,0,0,1-.26,2.832,8.927,8.927,0,0,1-.827,2.557,8.475,8.475,0,0,1-1.562,2.128A8.285,8.285,0,0,1,176.6,58.35a8.959,8.959,0,0,1-2.557.842,17.919,17.919,0,0,1-2.863.245c-.444.015-.919.015-1.378.015h-1.654Z" transform="translate(-0.87 -0.89)"/></svg>