<svg xmlns="http://www.w3.org/2000/svg" xmlns:xlink="http://www.w3.org/1999/xlink" width="206.691" height="61.242" viewBox="0 0 206.691 61.242"><defs><linearGradient id="a" x1="0.915" y1="51.845" x2="-0.384" y2="52.515" gradientUnits="objectBoundingBox"><stop offset="0" stop-color="#00a0ff"/><stop offset="0.007" stop-color="#00a1ff"/><stop offset="0.26" stop-color="#00beff"/><stop offset="0.512" stop-color="#00d2ff"/><stop offset="0.76" stop-color="#00dfff"/><stop offset="1" stop-color="#00e3ff"/></linearGradient><linearGradient id="b" x1="1.076" y1="152.136" x2="-1.306" y2="152.136" gradientUnits="objectBoundingBox"><stop offset="0" stop-color="#ffe000"/><stop offset="0.409" stop-color="#ffbd00"/><stop offset="0.775" stop-color="orange"/><stop offset="1" stop-color="#ff9c00"/></linearGradient><linearGradient id="c" x1="0.862" y1="101.121" x2="-0.502" y2="102.891" gradientUnits="objectBoundingBox"><stop offset="0" stop-color="#ff3a44"/><stop offset="1" stop-color="#c31162"/></linearGradient><linearGradient id="d" x1="-0.188" y1="100.401" x2="0.421" y2="101.191" gradientUnits="objectBoundingBox"><stop offset="0" stop-color="#32a071"/><stop offset="0.068" stop-color="#2da771"/><stop offset="0.476" stop-color="#15cf74"/><stop offset="0.801" stop-color="#06e775"/><stop offset="1" stop-color="#00f076"/></linearGradient></defs><g transform="translate(0 0)"><path d="M199.016,61.262H7.635A7.678,7.678,0,0,1-.02,53.606V7.675A7.678,7.678,0,0,1,7.635.02H199.016a7.678,7.678,0,0,1,7.655,7.655V53.606A7.678,7.678,0,0,1,199.016,61.262Z" transform="translate(0.02 -0.02)"/></g><g transform="translate(0 0)"><path d="M199.016,1.245a6.43,6.43,0,0,1,6.43,6.43V53.606a6.43,6.43,0,0,1-6.43,6.43H7.635a6.43,6.43,0,0,1-6.43-6.43V7.675a6.43,6.43,0,0,1,6.43-6.43H199.016m0-1.225H7.635A7.678,7.678,0,0,0-.02,7.675V53.606a7.678,7.678,0,0,0,7.655,7.655H199.016a7.678,7.678,0,0,0,7.655-7.655V7.675A7.678,7.678,0,0,0,199.016.02Z" transform="translate(0.02 -0.02)" fill="#a6a6a6"/></g><g transform="translate(63.309 10.518)"><path d="M50.623,12.05a4.1,4.1,0,0,1-1.148,3.062,4.452,4.452,0,0,1-3.368,1.363,4.732,4.732,0,0,1-4.777-4.792,4.583,4.583,0,0,1,1.393-3.414,4.837,4.837,0,0,1,5.267-1A3.9,3.9,0,0,1,49.429,8.3l-.811.811a3.115,3.115,0,0,0-2.511-1.087A3.469,3.469,0,0,0,43.6,9.049,3.506,3.506,0,0,0,42.54,11.7a3.616,3.616,0,0,0,6.139,2.649,2.865,2.865,0,0,0,.766-1.868H46.107v-1.1h4.455A5.243,5.243,0,0,1,50.623,12.05Z" transform="translate(-41.33 -6.89)" fill="#fff" stroke="#fff" stroke-miterlimit="10" stroke-width="0.2"/><path d="M53.869,8.153h-4.18v2.909h3.766v1.1H49.689v2.909h4.18v1.133H48.51V7.02h5.359Z" transform="translate(-37.517 -6.821)" fill="#fff" stroke="#fff" stroke-miterlimit="10" stroke-width="0.2"/><path d="M56.561,16.206H55.382V8.153H52.81V7.02h6.308V8.153H56.546l.015,8.053Z" transform="translate(-35.234 -6.821)" fill="#fff" stroke="#fff" stroke-miterlimit="10" stroke-width="0.2"/><path d="M59.92,16.206V7.02H61.1v9.186Z" transform="translate(-31.458 -6.821)" fill="#fff" stroke="#fff" stroke-miterlimit="10" stroke-width="0.2"/><path d="M65.411,16.206H64.232V8.153H61.66V7.02h6.308V8.153H65.4l.015,8.053Z" transform="translate(-30.534 -6.821)" fill="#fff" stroke="#fff" stroke-miterlimit="10" stroke-width="0.2"/><path d="M76.394,15.081a4.768,4.768,0,0,1-6.737,0,4.7,4.7,0,0,1-1.347-3.4,4.677,4.677,0,0,1,1.347-3.4A4.482,4.482,0,0,1,73.026,6.89a4.529,4.529,0,0,1,3.368,1.393,4.715,4.715,0,0,1,1.363,3.4A4.727,4.727,0,0,1,76.394,15.081Zm-5.864-.766a3.549,3.549,0,0,0,4.991,0,3.614,3.614,0,0,0,1.026-2.633,3.553,3.553,0,0,0-1.026-2.633,3.549,3.549,0,0,0-4.991,0A3.614,3.614,0,0,0,69.5,11.682,3.614,3.614,0,0,0,70.53,14.316Z" transform="translate(-27.002 -6.89)" fill="#fff" stroke="#fff" stroke-miterlimit="10" stroke-width="0.2"/><path d="M75.56,16.206V7.02H77l4.471,7.15h.046l-.046-1.776V7.02h1.179v9.186H81.424l-4.67-7.487h-.046l.046,1.776v5.711Z" transform="translate(-23.152 -6.821)" fill="#fff" stroke="#fff" stroke-miterlimit="10" stroke-width="0.2"/></g><path d="M82.511,24.266a6.507,6.507,0,1,0,6.538,6.507A6.422,6.422,0,0,0,82.511,24.266Zm0,10.457a3.763,3.763,0,0,1-3.675-3.95,3.684,3.684,0,1,1,7.349,0A3.773,3.773,0,0,1,82.511,34.723ZM68.242,24.266a6.507,6.507,0,1,0,6.538,6.507A6.422,6.422,0,0,0,68.242,24.266Zm0,10.457a3.763,3.763,0,0,1-3.675-3.95,3.684,3.684,0,1,1,7.349,0A3.763,3.763,0,0,1,68.242,34.723ZM51.278,26.272v2.756h6.614a5.813,5.813,0,0,1-1.5,3.475,6.753,6.753,0,0,1-5.1,2.021,7.35,7.35,0,0,1,0-14.7A7,7,0,0,1,56.269,21.8l1.944-1.944a9.639,9.639,0,0,0-6.936-2.786,10.121,10.121,0,1,0,0,20.24,9.232,9.232,0,0,0,7.058-2.832,9.138,9.138,0,0,0,2.388-6.461,8.352,8.352,0,0,0-.153-1.73H51.278v-.015Zm69.372,2.143a6.042,6.042,0,0,0-5.573-4.149,6.183,6.183,0,0,0-6.139,6.507A6.368,6.368,0,0,0,115.4,37.28a6.452,6.452,0,0,0,5.42-2.878l-2.22-1.485a3.7,3.7,0,0,1-3.2,1.807,3.312,3.312,0,0,1-3.154-1.975l8.712-3.6Zm-8.88,2.174a3.569,3.569,0,0,1,3.4-3.8,2.529,2.529,0,0,1,2.419,1.378ZM104.7,36.9h2.863V17.759H104.7ZM100.011,25.72H99.9a4.5,4.5,0,0,0-3.43-1.454,6.52,6.52,0,0,0,0,13.029A4.436,4.436,0,0,0,99.9,35.81H100v.934c0,2.5-1.332,3.828-3.475,3.828a3.6,3.6,0,0,1-3.276-2.312l-2.5,1.041a6.206,6.206,0,0,0,5.772,3.843c3.353,0,6.185-1.975,6.185-6.783v-11.7H100l.015,1.056Zm-3.292,9A3.738,3.738,0,0,1,93.091,30.8a3.76,3.76,0,0,1,3.629-3.965,3.673,3.673,0,0,1,3.475,3.965A3.621,3.621,0,0,1,96.719,34.723Zm37.342-16.964h-6.844V36.9h2.863V29.64h4a6.064,6.064,0,0,0,6.277-5.94A6.086,6.086,0,0,0,134.062,17.759Zm.061,9.217h-4.057V20.408h4.057a3.285,3.285,0,1,1,0,6.568Zm17.668-2.741a5.386,5.386,0,0,0-5.1,2.924l2.542,1.056a2.7,2.7,0,0,1,2.6-1.409,2.748,2.748,0,0,1,3,2.465v.2a6.394,6.394,0,0,0-2.986-.735c-2.741,0-5.512,1.5-5.512,4.3,0,2.557,2.235,4.21,4.746,4.21a4.026,4.026,0,0,0,3.644-1.868h.092v1.485h2.756V29.533C157.594,26.134,155.052,24.235,151.791,24.235Zm-.352,10.488c-.934,0-2.235-.475-2.235-1.623,0-1.47,1.623-2.036,3.031-2.036a5.042,5.042,0,0,1,2.6.643A3.455,3.455,0,0,1,151.439,34.723Zm16.2-10.074-3.276,8.3h-.092l-3.4-8.3h-3.077l5.1,11.605L159.982,42.7h2.986l7.854-18.051ZM141.916,36.9h2.863V17.759h-2.863Z" transform="translate(21.814 9.034)" fill="#fff"/><g transform="translate(15.265 10.933)"><path d="M10.664,7.6a3.081,3.081,0,0,0-.7,2.143V43.607a3.028,3.028,0,0,0,.7,2.143l.107.107L29.741,26.9v-.459L10.771,7.49Z" transform="translate(-9.945 -6.986)" fill="url(#a)"/><path d="M29.2,28.846,22.88,22.522v-.459L29.2,15.74l.138.077,7.487,4.256c2.143,1.21,2.143,3.2,0,4.425l-7.487,4.256Z" transform="translate(-3.084 -2.605)" fill="url(#b)"/><path d="M35.958,26.481,29.5,20.02,10.42,39.1c.7.75,1.868.842,3.185.092L35.958,26.481" transform="translate(-9.7 -0.333)" fill="url(#c)"/><path d="M35.963,20.388,13.595,7.68c-1.317-.75-2.48-.658-3.185.092L29.5,26.849Z" transform="translate(-9.706 -7.161)" fill="url(#d)"/><g transform="translate(0.015 26.011)"><path d="M35.82,24.15,13.589,36.781a2.544,2.544,0,0,1-3.062.015h0l-.107.107h0l.107.107h0A2.545,2.545,0,0,0,13.589,37L35.958,24.288Z" transform="translate(-9.716 -24.15)" opacity="0.2"/><path d="M10.664,33.083a3.081,3.081,0,0,1-.7-2.143v.23a3.028,3.028,0,0,0,.7,2.143l.107-.107Z" transform="translate(-9.96 -20.544)" opacity="0.12"/></g><path d="M34.64,22.01,27,26.343l.138.138,7.487-4.256a2.691,2.691,0,0,0,1.608-2.2h0A2.785,2.785,0,0,1,34.64,22.01Z" transform="translate(-0.896 -0.333)" opacity="0.12"/><path d="M13.839,7.892,43.694,24.856a2.861,2.861,0,0,1,1.608,1.99h0a2.672,2.672,0,0,0-1.608-2.2L13.839,7.677C11.7,6.468,9.95,7.478,9.95,9.928v.23C9.95,7.693,11.711,6.682,13.839,7.892Z" transform="translate(-9.95 -7.159)" fill="#fff" opacity="0.25"/></g></svg>