<svg xmlns="http://www.w3.org/2000/svg" width="410" height="410" viewBox="0 0 410 410"><g transform="translate(-0.431 0.314)"><circle cx="205" cy="205" r="205" transform="translate(0.431 -0.314)" fill="#ea5607"/><path d="M211.915,318.449c8.537-5.544,17.324-16.868,17.324-34.22,0-25.2-15.093-42-41.177-46.649V228H161.778v8.271H138.272V228h-26.28v8.271H90.449l32.367,43.6H103.1V369.8h19.714L90.449,413.4h21.544v8.264h26.28V413.4h23.5v8.264h26.284v-8.353c31.41-1.339,55.815-19.714,55.815-51.485,0-24.582-13.664-37.117-31.962-43.38m-71.731-48.681h27.327c15.371,0,24.4,7.228,24.4,19.277,0,11.809-9.267,19.522-23.422,19.522h-28.3ZM179.711,379.9H140.184V337.728h38.552c17.32,0,27.323,7.473,27.323,21.2S195.813,379.9,179.711,379.9Z" transform="translate(37.666 -120.053)" fill="#fff"/></g></svg>