<svg xmlns="http://www.w3.org/2000/svg" xmlns:xlink="http://www.w3.org/1999/xlink" width="135.03" height="32" viewBox="0 0 135.03 32"><defs><clipPath id="a"><rect width="135.03" height="32" fill="#fff"/></clipPath></defs><g clip-path="url(#a)"><path d="M53.51,8a4.134,4.134,0,0,0-1.034-.757,3.859,3.859,0,0,0-.587-.25l.129-.063a2.9,2.9,0,0,0,.676-.483,3.081,3.081,0,0,0,.728-1.218,4.777,4.777,0,0,0,.231-1.517,4.167,4.167,0,0,0-.247-1.462,2.971,2.971,0,0,0-.716-1.111A4.85,4.85,0,0,0,49.257,0H41.016V14.64h8.835a5.724,5.724,0,0,0,2.027-.327,3.981,3.981,0,0,0,1.431-.92,3.335,3.335,0,0,0,.76-1.227,4.591,4.591,0,0,0,.27-1.578,5.111,5.111,0,0,0-.2-1.463A2.786,2.786,0,0,0,53.51,8Zm-3.242,3.394a1.491,1.491,0,0,1-.537.249,3.1,3.1,0,0,1-.782.09h-4.5V8.767h4.535a1.99,1.99,0,0,1,1.252.372,1.115,1.115,0,0,1,.345.5,2.083,2.083,0,0,1,.107.7,1.762,1.762,0,0,1-.1.624A1,1,0,0,1,50.268,11.393ZM49.889,3.7a1.852,1.852,0,0,1,.125.674,2.129,2.129,0,0,1-.125.757,1.306,1.306,0,0,1-.32.494,1.115,1.115,0,0,1-.415.249,1.569,1.569,0,0,1-.517.079H44.451V2.894h3.886a2.957,2.957,0,0,1,.746.08,1.2,1.2,0,0,1,.5.25A1.252,1.252,0,0,1,49.9,3.7Z" fill="#1c6fe8"/><path d="M57.077,14.639h3.56V0h-3.56Z" fill="#1c6fe8"/><path d="M62.8,3.018h4.639V14.639h3.56V3.018h4.655V0H62.8Z" fill="#1c6fe8"/><path d="M76.925,3.018h4.637V14.639h3.56V3.018h4.657V0H76.925Z" fill="#1c6fe8"/><path d="M103.88,7.036a5.234,5.234,0,0,0,.549-2.585,6.822,6.822,0,0,0-.157-1.567,3.645,3.645,0,0,0-.506-1.191A3.126,3.126,0,0,0,102.379.44,5.38,5.38,0,0,0,100.07,0H91.937V14.639H95.39V9.093h3.442l2.78,5.546h3.935l-3.366-6.231a2.846,2.846,0,0,0,1.7-1.372ZM100.8,5.724a.65.65,0,0,1-.161.2,1.19,1.19,0,0,1-.442.213,2.545,2.545,0,0,1-.651.077H95.408V3.018h3.957a2.394,2.394,0,0,1,.968.165,1.1,1.1,0,0,1,.3.195.946.946,0,0,1,.2.272,1.124,1.124,0,0,1,.058.179,4.144,4.144,0,0,1,.085.875,3.284,3.284,0,0,1-.05.551A1.968,1.968,0,0,1,100.8,5.724Z" fill="#1c6fe8"/><path d="M103.881,7.036h0Z" fill="#020003"/><path d="M111.2,8.864h7.542V5.775H111.2v-2.7h7.831V0H107.762V14.639h11.356V11.585H111.2Z" fill="#1c6fe8"/><path d="M135.011,19.157H41.1V32h93.915Z" fill="#1c6fe8"/><path d="M74.968,29.147l-.071-.667a2.45,2.45,0,0,1-2.077.767,3.143,3.143,0,0,1-2.535-1.056,4.323,4.323,0,0,1-.678-2.6,3.921,3.921,0,0,1,.651-2.528,3.234,3.234,0,0,1,2.751-1.154c1.517,0,2.392.5,2.816,1.252a2.65,2.65,0,0,1,.343,1.308H74.651a1.251,1.251,0,0,0-.358-.8,1.693,1.693,0,0,0-1.236-.442,1.773,1.773,0,0,0-1.39.5,2.818,2.818,0,0,0-.469,1.905,2.814,2.814,0,0,0,.442,1.85A1.887,1.887,0,0,0,73.086,28a1.594,1.594,0,0,0,1.687-1.046V26.3H72.712V25.016h3.5v2.2c0,.875.009,1.895.009,1.921Z" fill="#fff"/><path d="M77.25,29.147V22.018h1.571v5.8h3.565v1.326Z" fill="#fff"/><path d="M88.8,23.056a4.1,4.1,0,0,1,.6,2.483,4.456,4.456,0,0,1-.631,2.571,4.121,4.121,0,0,1-5.667.018,4.284,4.284,0,0,1-.649-2.571,4,4,0,0,1,.614-2.437,3.253,3.253,0,0,1,2.862-1.209A3.287,3.287,0,0,1,88.8,23.056Zm-1.453,4.4a2.862,2.862,0,0,0,.488-1.877,2.9,2.9,0,0,0-.444-1.814,1.788,1.788,0,0,0-1.462-.551,1.677,1.677,0,0,0-1.444.56,3.064,3.064,0,0,0-.442,1.814,2.855,2.855,0,0,0,.537,1.9,1.75,1.75,0,0,0,1.363.479A1.791,1.791,0,0,0,87.349,27.451Z" fill="#fff"/><path d="M94.7,29.147H90.381V22.018h4.025a2.361,2.361,0,0,1,1.651.537,1.649,1.649,0,0,1,.451,1.218,1.819,1.819,0,0,1-.451,1.3,1.479,1.479,0,0,1-.685.358,1.907,1.907,0,0,1,1.091.551,1.764,1.764,0,0,1,.388,1.227,1.9,1.9,0,0,1-.487,1.336A2.216,2.216,0,0,1,94.7,29.147Zm-.072-5.685a1.027,1.027,0,0,0-.685-.19H91.907V25H94.1a.744.744,0,0,0,.537-.19.927.927,0,0,0,.252-.7.893.893,0,0,0-.252-.649Zm.587,3.628a.828.828,0,0,0-.261-.676,1.087,1.087,0,0,0-.687-.208H91.907v1.678h2.345a1.183,1.183,0,0,0,.715-.19.73.73,0,0,0,.251-.6Z" fill="#fff"/><path d="M98.747,29.147h-1.6l2.762-7.129h1.968l2.608,7.129h-1.624l-.6-1.678H99.388Zm2.285-5.161-.163-.587-.179.6-.812,2.184h1.911Z" fill="#fff"/><path d="M105.162,29.147V22.018h1.571v5.8H110.3v1.326Z" fill="#fff"/><path d="M32,22.719V0H9.281V6.721h4.15V4.15H27.848V18.565H22.719V9.283H0V32H22.719V25.283h-4.15V27.85H4.15V13.433H9.283v9.286ZM18.565,18.567H13.433V13.433h5.132Z" fill="#1c6fe8"/><path d="M129.681,7.005,128.13,4.794,124.91,0h-4.116l5.057,7.245-5.373,7.394H124.5l.079-.115,3.188-4.59,3.166,4.7h4.1Z" fill="#1c6fe8"/><path d="M130.463,2.526h2.04V4.517h2.528V0h-4.519V2.526Z" fill="#1c6fe8"/></g></svg>