<svg xmlns="http://www.w3.org/2000/svg" width="144" height="33.583" viewBox="0 0 144 33.583"><path d="M454.72,2534.193a1.809,1.809,0,1,1,1.809,1.854A1.834,1.834,0,0,1,454.72,2534.193Zm22.288-14.434v3.667h-5.514c-1.86,0-3.147.43-3.859,1.276a5.522,5.522,0,0,0-1.034,3.674,4.707,4.707,0,0,0,1.688,4.023,4.22,4.22,0,0,0,1.5.685,9.877,9.877,0,0,0,2.257.195h4.962v3.674H470.7a12.266,12.266,0,0,1-4.03-.531,6.172,6.172,0,0,1-2.62-1.834,9.169,9.169,0,0,1-2.171-6.287q0-4.594,2.585-6.851a6.071,6.071,0,0,1,2.481-1.31,15.109,15.109,0,0,1,3.755-.383h6.306Zm11.267-.249q4.652,0,6.857,2.754a9.705,9.705,0,0,1,2.033,6.32,8.406,8.406,0,0,1-2.552,6.428,9.037,9.037,0,0,1-6.409,2.19,8.7,8.7,0,0,1-6.582-2.472q-2.206-2.227-2.206-6.5a8.771,8.771,0,0,1,2.1-6A8.567,8.567,0,0,1,488.275,2519.51Zm.035,3.6q-4.17,0-4.17,5.3a6.37,6.37,0,0,0,.689,3.284,3.811,3.811,0,0,0,3.515,1.908q4.1,0,4.1-5.266Q492.444,2523.187,488.31,2523.11Zm12.266-3.352h16.953a13.311,13.311,0,0,1,3.515.349,4.472,4.472,0,0,1,2.033,1.236,6.758,6.758,0,0,1,1.516,4.661v10.948h-4.617v-10.2a9.812,9.812,0,0,0-.1-1.733,1.742,1.742,0,0,0-.482-.88,2.971,2.971,0,0,0-2.171-.712h-2.447v13.527h-4.617v-13.527h-4.962v13.527h-4.617v-17.195Zm-72.2,8.59-6.655-8.812h5.288l3.981,5.87,4.316-5.87h5.227l-6.868,8.812,6.868,8.994h-5.075l-4.468-6.112-4.376,6.112h-5.136Zm18.9-5.635h-7.787l2.7-3.177h16.12v3.177H451.6v14.629h-4.315v-14.629Z" transform="translate(-380.604 -2511.107)" fill="#1a1a1a" fill-rule="evenodd"/><path d="M470.971,2540.507a1.809,1.809,0,1,1,1.809,1.854,1.835,1.835,0,0,1-1.809-1.854Z" transform="translate(-396.854 -2517.422)" fill="#ffbe41" fill-rule="evenodd"/><path d="M377.541,2540.583a16.791,16.791,0,1,1,16.665-16.792A16.791,16.791,0,0,1,377.541,2540.583Zm0-31.091a14.3,14.3,0,1,0,14.2,14.3A14.3,14.3,0,0,0,377.541,2509.492Zm.6,12,3.217-3.936a.967.967,0,0,0-.729-1.578h0a.959.959,0,0,0-.729.343l-2.993,3.654-2.993-3.654a.924.924,0,0,0-.729-.343h-2.469a.962.962,0,0,0-.729,1.579l4.452,5.44-5.686,6.958a.956.956,0,1,0,1.46,1.236l5.461-6.67Zm7.462-5.514a.962.962,0,0,0-.729.342l-5.44,6.676-2.469,3.022-3.217,3.936a.956.956,0,0,0,1.459,1.236l2.993-3.647,2.992,3.647a.927.927,0,0,0,.73.343h2.464a.961.961,0,0,0,.729-1.579l-4.451-5.434,5.686-6.965a.973.973,0,0,0-.749-1.579" transform="translate(-360.622 -2507)" fill="#ffbe40" fill-rule="evenodd"/></svg>