<svg xmlns="http://www.w3.org/2000/svg" width="32" height="32" viewBox="0 0 32 32"><path d="M4.645-10.759A15.475,15.475,0,0,1,16-15.469a15.422,15.422,0,0,1,11.323,4.677A15.422,15.422,0,0,1,32,.531a15.422,15.422,0,0,1-4.677,11.323A15.422,15.422,0,0,1,16,16.531,15.422,15.422,0,0,1,4.677,11.854,15.422,15.422,0,0,1,0,.531,15.37,15.37,0,0,1,4.645-10.759ZM23.871-4.5a1.24,1.24,0,0,0-.226-1.129.76.76,0,0,0-.871-.161L7.355.209q-.839.258-.871.645t.677.581L11.1,2.66l9.161-5.742q.387-.258.581-.065.065.065-.065.194l-7.419,6.71-.323,4.065a1.171,1.171,0,0,0,.839-.387l1.935-1.871,4,2.968q1.161.645,1.419-.645Z" transform="translate(0 15.469)" fill="#259dd0"/></svg>