<svg xmlns="http://www.w3.org/2000/svg" width="32" height="26" viewBox="0 0 32 26"><path d="M28.688-7.562a3.723,3.723,0,0,1,.063.813A18.4,18.4,0,0,1,27.5-.156a20.789,20.789,0,0,1-3.531,6,16.843,16.843,0,0,1-5.906,4.406,18.723,18.723,0,0,1-8,1.688A18.209,18.209,0,0,1,0,9q.688.063,1.563.063A13.011,13.011,0,0,0,9.75,6.25,6.1,6.1,0,0,1,5.906,4.969,6.527,6.527,0,0,1,3.625,1.75q.625.063,1.188.063a8.331,8.331,0,0,0,1.75-.187A6.376,6.376,0,0,1,3.875.375,6.848,6.848,0,0,1,2-1.906a6.288,6.288,0,0,1-.687-2.906v-.125a6.178,6.178,0,0,0,2.938.875,6.307,6.307,0,0,1-2.937-5.5,6.336,6.336,0,0,1,.938-3.312A18.1,18.1,0,0,0,8.219-8,18.166,18.166,0,0,0,15.75-6a9.109,9.109,0,0,1-.125-1.5,6.365,6.365,0,0,1,1.906-4.625,6.211,6.211,0,0,1,4.594-1.937A6.335,6.335,0,0,1,26.938-12a13.352,13.352,0,0,0,4.188-1.562A6.513,6.513,0,0,1,28.25-9.937,14.1,14.1,0,0,0,32-11,14.426,14.426,0,0,1,28.688-7.562Z" transform="translate(0 14.063)" fill="#4aa1ec"/></svg>