<svg xmlns="http://www.w3.org/2000/svg" xmlns:xlink="http://www.w3.org/1999/xlink" width="167" height="167" viewBox="0 0 167 167"><defs><filter id="a" x="0" y="0" width="167" height="167" filterUnits="userSpaceOnUse"><feOffset dy="10" input="SourceAlpha"/><feGaussianBlur stdDeviation="10" result="b"/><feFlood flood-color="#606060" flood-opacity="0.161"/><feComposite operator="in" in2="b"/><feComposite in="SourceGraphic"/></filter><linearGradient id="c" x1="0.282" y1="0.153" x2="1.034" y2="0.847" gradientUnits="objectBoundingBox"><stop offset="0" stop-color="#00aae4"/><stop offset="1" stop-color="#006097"/></linearGradient></defs><g transform="translate(-1308 -290.632)"><g transform="matrix(1, 0, 0, 1, 1308, 290.63)" filter="url(#a)"><circle cx="53.5" cy="53.5" r="53.5" transform="translate(30 20)" fill="#fff"/></g><path d="M79.476,77.993a15.119,15.119,0,0,0-7.168-1.733A5.079,5.079,0,0,1,67.152,71.1a5.233,5.233,0,0,1,5.158-5.163A15.119,15.119,0,0,0,79.476,64.2,13.062,13.062,0,1,0,59.884,52.89a15,15,0,0,0,2.049,7.02c.966,1.817,1.455,5.189-1.858,7.1A5.245,5.245,0,0,1,53,65.074a15.013,15.013,0,0,0-5.057-5.289,13.062,13.062,0,1,0,0,22.624A15.005,15.005,0,0,0,53,77.123c1.065-1.7,3.725-3.877,7.078-1.939a5.25,5.25,0,0,1,1.857,7.1A15,15,0,0,0,59.884,89.3,13.062,13.062,0,1,0,79.476,77.993Z" transform="translate(1330.454 293.204)" fill="url(#c)"/></g></svg>